<svg xmlns="http://www.w3.org/2000/svg" viewBox="0 0 100 100" fill="none">
  <rect x="0" y="0" width="100" height="100" rx="22" fill="#F10004"></rect>
  <g transform="translate(20 22) scale(0.196)">
    <path d="M 308.836 123.481 L 308.836 123.519 C 308.836 205.613 304.265 233.47 259.545 242.632 C 245.62 245.505 227.763 246.592 204.948 246.884 L 203.031 246.884 C 199.951 246.884 197.007 246.806 194.218 246.67 C 184.244 246.165 175.935 244.748 169.04 242.593 C 135.883 232.227 136.58 204.352 152.636 174.787 C 161.197 159.005 174.153 142.757 188.699 128.431 L 209.093 161.334 L 240.623 97.352 L 246.491 85.491 L 162.01 85.491 L 182.462 118.395 C 165.225 126.47 146.593 135.594 128.736 145.377 C 109.33 156.035 90.795 167.527 75.805 179.523 C 63.758 189.152 53.997 199.149 47.915 209.224 C 41.602 219.765 39.277 230.422 42.512 241.04 C 32.131 238.129 24.229 233.877 18.283 227.704 C 2.208 211.029 0 180.222 0 123.519 C 0 109.271 0.116 96.653 0.62 85.491 C 3.699 10.735 21.285 0.835 109.04 0.078 C 113.572 0 118.297 0 123.217 0 L 187.459 0 C 235.626 0.039 264.755 1.786 282.36 12.754 C 294.194 20.092 300.818 31.545 304.459 49.365 C 306.492 59.285 307.616 71.223 308.197 85.51 C 308.7 96.672 308.816 109.252 308.816 123.5 L 308.836 123.481 Z" fill="#FFFFFF" fill-rule="nonzero"></path>
  </g>
</svg>